ISO-10303-21;
HEADER;
/* Generated by software containing ST-Developer
 * from STEP Tools, Inc. (www.steptools.com) 
 */

FILE_DESCRIPTION(
/* description */ (''),
/* implementation_level */ '2;1');

FILE_NAME(
/* name */ 'Tibia - Variant.step',
/* time_stamp */ '2026-08-22T22:13:31+02:00',
/* author */ (''),
/* organization */ (''),
/* preprocessor_version */ 'ST-DEVELOPER v20.1',
/* originating_system */ 'Autodesk Translation Framework v15.8.0.0',
/* authorisation */ '');

FILE_SCHEMA (('AUTOMOTIVE_DESIGN { 1 0 10303 214 3 1 1 }'));
ENDSEC;

DATA;
#10=MECHANICAL_DESIGN_GEOMETRIC_PRESENTATION_REPRESENTATION('',(#13),#1178);
#11=SHAPE_REPRESENTATION_RELATIONSHIP('SRR','None',#1185,#12);
#12=ADVANCED_BREP_SHAPE_REPRESENTATION('',(#14),#1177);
#13=STYLED_ITEM('',(#1194),#14);
#14=MANIFOLD_SOLID_BREP('tibia',#686);
#15=B_SPLINE_CURVE_WITH_KNOTS('',3,(#1120,#1121,#1122,#1123),
 .UNSPECIFIED.,.F.,.F.,(4,4),(0.,0.0314455879858629),.UNSPECIFIED.);
#16=FACE_BOUND('',#107,.T.);
#17=FACE_BOUND('',#108,.T.);
#18=FACE_BOUND('',#109,.T.);
#19=FACE_BOUND('',#110,.T.);
#20=FACE_BOUND('',#126,.T.);
#21=FACE_BOUND('',#127,.T.);
#22=FACE_BOUND('',#128,.T.);
#23=FACE_BOUND('',#129,.T.);
#24=CIRCLE('',#704,4.);
#25=CIRCLE('',#705,4.);
#26=CIRCLE('',#707,1.);
#27=CIRCLE('',#708,1.);
#28=CIRCLE('',#720,4.);
#29=CIRCLE('',#725,4.);
#30=CIRCLE('',#726,4.);
#31=CIRCLE('',#727,4.);
#32=CIRCLE('',#728,4.);
#33=CIRCLE('',#729,4.);
#34=CIRCLE('',#730,1.625);
#35=CIRCLE('',#731,1.625);
#36=CIRCLE('',#732,1.625);
#37=CIRCLE('',#733,1.625);
#38=CIRCLE('',#736,4.);
#39=CIRCLE('',#737,4.);
#40=CIRCLE('',#745,4.);
#41=CIRCLE('',#749,4.);
#42=CIRCLE('',#751,4.);
#43=CIRCLE('',#754,4.);
#44=CIRCLE('',#759,1.625);
#45=CIRCLE('',#760,1.625);
#46=CIRCLE('',#761,1.625);
#47=CIRCLE('',#762,1.625);
#48=PLANE('',#703);
#49=PLANE('',#709);
#50=PLANE('',#714);
#51=PLANE('',#718);
#52=PLANE('',#721);
#53=PLANE('',#724);
#54=PLANE('',#735);
#55=PLANE('',#740);
#56=PLANE('',#742);
#57=PLANE('',#748);
#58=PLANE('',#752);
#59=PLANE('',#758);
#60=PLANE('',#763);
#61=PLANE('',#764);
#62=PLANE('',#769);
#63=FACE_OUTER_BOUND('',#96,.T.);
#64=FACE_OUTER_BOUND('',#97,.T.);
#65=FACE_OUTER_BOUND('',#98,.T.);
#66=FACE_OUTER_BOUND('',#99,.T.);
#67=FACE_OUTER_BOUND('',#100,.T.);
#68=FACE_OUTER_BOUND('',#101,.T.);
#69=FACE_OUTER_BOUND('',#102,.T.);
#70=FACE_OUTER_BOUND('',#103,.T.);
#71=FACE_OUTER_BOUND('',#104,.T.);
#72=FACE_OUTER_BOUND('',#105,.T.);
#73=FACE_OUTER_BOUND('',#106,.T.);
#74=FACE_OUTER_BOUND('',#111,.T.);
#75=FACE_OUTER_BOUND('',#112,.T.);
#76=FACE_OUTER_BOUND('',#113,.T.);
#77=FACE_OUTER_BOUND('',#114,.T.);
#78=FACE_OUTER_BOUND('',#115,.T.);
#79=FACE_OUTER_BOUND('',#116,.T.);
#80=FACE_OUTER_BOUND('',#117,.T.);
#81=FACE_OUTER_BOUND('',#118,.T.);
#82=FACE_OUTER_BOUND('',#119,.T.);
#83=FACE_OUTER_BOUND('',#120,.T.);
#84=FACE_OUTER_BOUND('',#121,.T.);
#85=FACE_OUTER_BOUND('',#122,.T.);
#86=FACE_OUTER_BOUND('',#123,.T.);
#87=FACE_OUTER_BOUND('',#124,.T.);
#88=FACE_OUTER_BOUND('',#125,.T.);
#89=FACE_OUTER_BOUND('',#130,.T.);
#90=FACE_OUTER_BOUND('',#131,.T.);
#91=FACE_OUTER_BOUND('',#132,.T.);
#92=FACE_OUTER_BOUND('',#133,.T.);
#93=FACE_OUTER_BOUND('',#134,.T.);
#94=FACE_OUTER_BOUND('',#135,.T.);
#95=FACE_OUTER_BOUND('',#136,.T.);
#96=EDGE_LOOP('',(#437,#438,#439,#440));
#97=EDGE_LOOP('',(#441,#442,#443,#444,#445,#446,#447,#448));
#98=EDGE_LOOP('',(#449,#450,#451,#452));
#99=EDGE_LOOP('',(#453,#454,#455,#456,#457,#458,#459));
#100=EDGE_LOOP('',(#460,#461,#462,#463));
#101=EDGE_LOOP('',(#464,#465,#466,#467));
#102=EDGE_LOOP('',(#468,#469,#470,#471));
#103=EDGE_LOOP('',(#472,#473,#474,#475));
#104=EDGE_LOOP('',(#476,#477,#478,#479));
#105=EDGE_LOOP('',(#480,#481,#482,#483,#484,#485,#486,#487,#488,#489,#490,
#491,#492,#493,#494));
#106=EDGE_LOOP('',(#495,#496,#497,#498,#499,#500,#501,#502,#503,#504,#505,
#506));
#107=EDGE_LOOP('',(#507));
#108=EDGE_LOOP('',(#508));
#109=EDGE_LOOP('',(#509));
#110=EDGE_LOOP('',(#510));
#111=EDGE_LOOP('',(#511,#512,#513,#514));
#112=EDGE_LOOP('',(#515,#516,#517,#518,#519,#520,#521,#522,#523,#524,#525));
#113=EDGE_LOOP('',(#526,#527,#528,#529));
#114=EDGE_LOOP('',(#530,#531,#532,#533,#534,#535));
#115=EDGE_LOOP('',(#536,#537,#538,#539));
#116=EDGE_LOOP('',(#540,#541,#542,#543));
#117=EDGE_LOOP('',(#544,#545,#546,#547,#548,#549,#550));
#118=EDGE_LOOP('',(#551,#552,#553,#554));
#119=EDGE_LOOP('',(#555,#556,#557,#558,#559,#560,#561,#562,#563,#564,#565));
#120=EDGE_LOOP('',(#566,#567,#568,#569));
#121=EDGE_LOOP('',(#570,#571,#572,#573));
#122=EDGE_LOOP('',(#574,#575,#576,#577));
#123=EDGE_LOOP('',(#578,#579,#580,#581));
#124=EDGE_LOOP('',(#582,#583,#584,#585));
#125=EDGE_LOOP('',(#586,#587,#588,#589,#590,#591));
#126=EDGE_LOOP('',(#592));
#127=EDGE_LOOP('',(#593));
#128=EDGE_LOOP('',(#594));
#129=EDGE_LOOP('',(#595));
#130=EDGE_LOOP('',(#596,#597,#598,#599));
#131=EDGE_LOOP('',(#600,#601,#602,#603,#604,#605,#606,#607,#608,#609,#610,
#611,#612,#613,#614));
#132=EDGE_LOOP('',(#615,#616,#617,#618));
#133=EDGE_LOOP('',(#619,#620,#621,#622));
#134=EDGE_LOOP('',(#623,#624,#625,#626));
#135=EDGE_LOOP('',(#627,#628,#629,#630));
#136=EDGE_LOOP('',(#631,#632,#633,#634));
#137=LINE('',#979,#198);
#138=LINE('',#982,#199);
#139=LINE('',#985,#200);
#140=LINE('',#989,#201);
#141=LINE('',#991,#202);
#142=LINE('',#993,#203);
#143=LINE('',#996,#204);
#144=LINE('',#1001,#205);
#145=LINE('',#1005,#206);
#146=LINE('',#1007,#207);
#147=LINE('',#1009,#208);
#148=LINE('',#1011,#209);
#149=LINE('',#1014,#210);
#150=LINE('',#1019,#211);
#151=LINE('',#1023,#212);
#152=LINE('',#1025,#213);
#153=LINE('',#1026,#214);
#154=LINE('',#1031,#215);
#155=LINE('',#1034,#216);
#156=LINE('',#1035,#217);
#157=LINE('',#1040,#218);
#158=LINE('',#1041,#219);
#159=LINE('',#1044,#220);
#160=LINE('',#1046,#221);
#161=LINE('',#1048,#222);
#162=LINE('',#1052,#223);
#163=LINE('',#1055,#224);
#164=LINE('',#1058,#225);
#165=LINE('',#1062,#226);
#166=LINE('',#1066,#227);
#167=LINE('',#1070,#228);
#168=LINE('',#1074,#229);
#169=LINE('',#1085,#230);
#170=LINE('',#1086,#231);
#171=LINE('',#1089,#232);
#172=LINE('',#1091,#233);
#173=LINE('',#1095,#234);
#174=LINE('',#1098,#235);
#175=LINE('',#1102,#236);
#176=LINE('',#1105,#237);
#177=LINE('',#1109,#238);
#178=LINE('',#1110,#239);
#179=LINE('',#1112,#240);
#180=LINE('',#1114,#241);
#181=LINE('',#1117,#242);
#182=LINE('',#1125,#243);
#183=LINE('',#1128,#244);
#184=LINE('',#1131,#245);
#185=LINE('',#1135,#246);
#186=LINE('',#1136,#247);
#187=LINE('',#1140,#248);
#188=LINE('',#1143,#249);
#189=LINE('',#1144,#250);
#190=LINE('',#1150,#251);
#191=LINE('',#1152,#252);
#192=LINE('',#1153,#253);
#193=LINE('',#1164,#254);
#194=LINE('',#1167,#255);
#195=LINE('',#1169,#256);
#196=LINE('',#1171,#257);
#197=LINE('',#1173,#258);
#198=VECTOR('',#776,10.);
#199=VECTOR('',#779,10.);
#200=VECTOR('',#782,10.);
#201=VECTOR('',#785,10.);
#202=VECTOR('',#786,10.);
#203=VECTOR('',#787,10.);
#204=VECTOR('',#790,10.);
#205=VECTOR('',#795,10.);
#206=VECTOR('',#800,10.);
#207=VECTOR('',#801,10.);
#208=VECTOR('',#802,10.);
#209=VECTOR('',#803,10.);
#210=VECTOR('',#806,10.);
#211=VECTOR('',#811,10.);
#212=VECTOR('',#816,10.);
#213=VECTOR('',#817,10.);
#214=VECTOR('',#818,10.);
#215=VECTOR('',#823,10.);
#216=VECTOR('',#828,10.);
#217=VECTOR('',#829,10.);
#218=VECTOR('',#834,10.);
#219=VECTOR('',#835,10.);
#220=VECTOR('',#838,10.);
#221=VECTOR('',#839,10.);
#222=VECTOR('',#840,10.);
#223=VECTOR('',#843,10.);
#224=VECTOR('',#846,10.);
#225=VECTOR('',#849,10.);
#226=VECTOR('',#852,10.);
#227=VECTOR('',#855,10.);
#228=VECTOR('',#858,10.);
#229=VECTOR('',#861,10.);
#230=VECTOR('',#874,10.);
#231=VECTOR('',#875,10.);
#232=VECTOR('',#878,10.);
#233=VECTOR('',#879,10.);
#234=VECTOR('',#882,10.);
#235=VECTOR('',#885,10.);
#236=VECTOR('',#890,10.);
#237=VECTOR('',#893,10.);
#238=VECTOR('',#896,10.);
#239=VECTOR('',#897,10.);
#240=VECTOR('',#900,10.);
#241=VECTOR('',#903,10.);
#242=VECTOR('',#906,10.);
#243=VECTOR('',#909,10.);
#244=VECTOR('',#914,10.);
#245=VECTOR('',#917,10.);
#246=VECTOR('',#920,10.);
#247=VECTOR('',#921,10.);
#248=VECTOR('',#926,10.);
#249=VECTOR('',#929,10.);
#250=VECTOR('',#930,10.);
#251=VECTOR('',#939,10.);
#252=VECTOR('',#942,10.);
#253=VECTOR('',#943,10.);
#254=VECTOR('',#956,10.);
#255=VECTOR('',#961,1.625);
#256=VECTOR('',#964,1.625);
#257=VECTOR('',#967,1.625);
#258=VECTOR('',#970,1.625);
#259=ELLIPSE('',#701,1.00280855600658,1.);
#260=ELLIPSE('',#702,1.00280855600658,1.);
#261=ELLIPSE('',#710,4.80740170064572,4.);
#262=ELLIPSE('',#712,1.00280855600658,1.);
#263=ELLIPSE('',#713,1.00280855600658,1.);
#264=ELLIPSE('',#716,1.00280855600658,1.);
#265=ELLIPSE('',#717,1.00280855600658,1.);
#266=ELLIPSE('',#722,4.01123422402632,4.);
#267=ELLIPSE('',#723,4.01123422402632,4.);
#268=ELLIPSE('',#739,4.05517502020014,4.);
#269=ELLIPSE('',#741,4.05517502020014,4.);
#270=ELLIPSE('',#746,4.01123422402632,4.);
#271=ELLIPSE('',#756,4.01123422402632,4.);
#272=VERTEX_POINT('',#975);
#273=VERTEX_POINT('',#976);
#274=VERTEX_POINT('',#978);
#275=VERTEX_POINT('',#980);
#276=VERTEX_POINT('',#984);
#277=VERTEX_POINT('',#986);
#278=VERTEX_POINT('',#988);
#279=VERTEX_POINT('',#990);
#280=VERTEX_POINT('',#992);
#281=VERTEX_POINT('',#994);
#282=VERTEX_POINT('',#998);
#283=VERTEX_POINT('',#1000);
#284=VERTEX_POINT('',#1004);
#285=VERTEX_POINT('',#1006);
#286=VERTEX_POINT('',#1008);
#287=VERTEX_POINT('',#1010);
#288=VERTEX_POINT('',#1012);
#289=VERTEX_POINT('',#1016);
#290=VERTEX_POINT('',#1018);
#291=VERTEX_POINT('',#1022);
#292=VERTEX_POINT('',#1024);
#293=VERTEX_POINT('',#1028);
#294=VERTEX_POINT('',#1030);
#295=VERTEX_POINT('',#1037);
#296=VERTEX_POINT('',#1038);
#297=VERTEX_POINT('',#1043);
#298=VERTEX_POINT('',#1045);
#299=VERTEX_POINT('',#1047);
#300=VERTEX_POINT('',#1049);
#301=VERTEX_POINT('',#1051);
#302=VERTEX_POINT('',#1053);
#303=VERTEX_POINT('',#1057);
#304=VERTEX_POINT('',#1059);
#305=VERTEX_POINT('',#1061);
#306=VERTEX_POINT('',#1063);
#307=VERTEX_POINT('',#1065);
#308=VERTEX_POINT('',#1067);
#309=VERTEX_POINT('',#1069);
#310=VERTEX_POINT('',#1071);
#311=VERTEX_POINT('',#1073);
#312=VERTEX_POINT('',#1076);
#313=VERTEX_POINT('',#1078);
#314=VERTEX_POINT('',#1080);
#315=VERTEX_POINT('',#1082);
#316=VERTEX_POINT('',#1088);
#317=VERTEX_POINT('',#1090);
#318=VERTEX_POINT('',#1092);
#319=VERTEX_POINT('',#1094);
#320=VERTEX_POINT('',#1096);
#321=VERTEX_POINT('',#1100);
#322=VERTEX_POINT('',#1104);
#323=VERTEX_POINT('',#1106);
#324=VERTEX_POINT('',#1108);
#325=VERTEX_POINT('',#1116);
#326=VERTEX_POINT('',#1118);
#327=VERTEX_POINT('',#1124);
#328=VERTEX_POINT('',#1130);
#329=VERTEX_POINT('',#1132);
#330=VERTEX_POINT('',#1134);
#331=VERTEX_POINT('',#1138);
#332=VERTEX_POINT('',#1142);
#333=VERTEX_POINT('',#1148);
#334=VERTEX_POINT('',#1155);
#335=VERTEX_POINT('',#1157);
#336=VERTEX_POINT('',#1159);
#337=VERTEX_POINT('',#1161);
#338=EDGE_CURVE('',#272,#273,#259,.T.);
#339=EDGE_CURVE('',#273,#274,#137,.T.);
#340=EDGE_CURVE('',#274,#275,#260,.T.);
#341=EDGE_CURVE('',#275,#272,#138,.T.);
#342=EDGE_CURVE('',#276,#273,#139,.T.);
#343=EDGE_CURVE('',#277,#276,#24,.T.);
#344=EDGE_CURVE('',#278,#277,#140,.T.);
#345=EDGE_CURVE('',#279,#278,#141,.T.);
#346=EDGE_CURVE('',#280,#279,#142,.T.);
#347=EDGE_CURVE('',#281,#280,#25,.T.);
#348=EDGE_CURVE('',#274,#281,#143,.T.);
#349=EDGE_CURVE('',#278,#282,#26,.T.);
#350=EDGE_CURVE('',#282,#283,#144,.T.);
#351=EDGE_CURVE('',#283,#279,#27,.T.);
#352=EDGE_CURVE('',#284,#282,#145,.T.);
#353=EDGE_CURVE('',#285,#284,#146,.T.);
#354=EDGE_CURVE('',#286,#285,#147,.T.);
#355=EDGE_CURVE('',#287,#286,#148,.T.);
#356=EDGE_CURVE('',#288,#287,#261,.T.);
#357=EDGE_CURVE('',#283,#288,#149,.T.);
#358=EDGE_CURVE('',#285,#289,#262,.T.);
#359=EDGE_CURVE('',#289,#290,#150,.T.);
#360=EDGE_CURVE('',#290,#286,#263,.T.);
#361=EDGE_CURVE('',#291,#289,#151,.T.);
#362=EDGE_CURVE('',#292,#291,#152,.T.);
#363=EDGE_CURVE('',#290,#292,#153,.T.);
#364=EDGE_CURVE('',#291,#293,#264,.T.);
#365=EDGE_CURVE('',#293,#294,#154,.T.);
#366=EDGE_CURVE('',#294,#292,#265,.T.);
#367=EDGE_CURVE('',#294,#275,#155,.T.);
#368=EDGE_CURVE('',#272,#293,#156,.T.);
#369=EDGE_CURVE('',#295,#296,#28,.T.);
#370=EDGE_CURVE('',#296,#281,#157,.T.);
#371=EDGE_CURVE('',#280,#295,#158,.T.);
#372=EDGE_CURVE('',#296,#297,#159,.T.);
#373=EDGE_CURVE('',#298,#297,#160,.T.);
#374=EDGE_CURVE('',#298,#299,#161,.T.);
#375=EDGE_CURVE('',#300,#299,#266,.T.);
#376=EDGE_CURVE('',#300,#301,#162,.T.);
#377=EDGE_CURVE('',#302,#301,#267,.T.);
#378=EDGE_CURVE('',#287,#302,#163,.T.);
#379=EDGE_CURVE('',#303,#295,#164,.T.);
#380=EDGE_CURVE('',#304,#303,#29,.T.);
#381=EDGE_CURVE('',#304,#305,#165,.T.);
#382=EDGE_CURVE('',#306,#305,#30,.T.);
#383=EDGE_CURVE('',#307,#306,#166,.T.);
#384=EDGE_CURVE('',#308,#307,#31,.T.);
#385=EDGE_CURVE('',#309,#308,#167,.T.);
#386=EDGE_CURVE('',#310,#309,#32,.T.);
#387=EDGE_CURVE('',#311,#310,#168,.T.);
#388=EDGE_CURVE('',#297,#311,#33,.T.);
#389=EDGE_CURVE('',#312,#312,#34,.T.);
#390=EDGE_CURVE('',#313,#313,#35,.T.);
#391=EDGE_CURVE('',#314,#314,#36,.T.);
#392=EDGE_CURVE('',#315,#315,#37,.T.);
#393=EDGE_CURVE('',#307,#277,#169,.T.);
#394=EDGE_CURVE('',#276,#308,#170,.T.);
#395=EDGE_CURVE('',#316,#306,#171,.T.);
#396=EDGE_CURVE('',#316,#317,#172,.T.);
#397=EDGE_CURVE('',#318,#317,#38,.T.);
#398=EDGE_CURVE('',#318,#319,#173,.T.);
#399=EDGE_CURVE('',#320,#319,#39,.T.);
#400=EDGE_CURVE('',#284,#320,#174,.T.);
#401=EDGE_CURVE('',#321,#298,#268,.T.);
#402=EDGE_CURVE('',#311,#321,#175,.T.);
#403=EDGE_CURVE('',#321,#322,#176,.T.);
#404=EDGE_CURVE('',#323,#322,#269,.T.);
#405=EDGE_CURVE('',#324,#323,#177,.T.);
#406=EDGE_CURVE('',#299,#324,#178,.T.);
#407=EDGE_CURVE('',#322,#310,#179,.T.);
#408=EDGE_CURVE('',#309,#323,#180,.T.);
#409=EDGE_CURVE('',#319,#325,#181,.T.);
#410=EDGE_CURVE('',#325,#326,#40,.T.);
#411=EDGE_CURVE('',#326,#302,#15,.T.);
#412=EDGE_CURVE('',#301,#327,#182,.T.);
#413=EDGE_CURVE('',#327,#320,#270,.T.);
#414=EDGE_CURVE('',#326,#288,#183,.T.);
#415=EDGE_CURVE('',#325,#328,#184,.T.);
#416=EDGE_CURVE('',#329,#328,#41,.T.);
#417=EDGE_CURVE('',#329,#330,#185,.T.);
#418=EDGE_CURVE('',#303,#330,#186,.T.);
#419=EDGE_CURVE('',#330,#331,#42,.T.);
#420=EDGE_CURVE('',#331,#304,#187,.T.);
#421=EDGE_CURVE('',#331,#332,#188,.T.);
#422=EDGE_CURVE('',#305,#332,#189,.T.);
#423=EDGE_CURVE('',#332,#316,#43,.T.);
#424=EDGE_CURVE('',#324,#333,#271,.T.);
#425=EDGE_CURVE('',#333,#300,#190,.T.);
#426=EDGE_CURVE('',#317,#329,#191,.T.);
#427=EDGE_CURVE('',#328,#318,#192,.T.);
#428=EDGE_CURVE('',#334,#334,#44,.T.);
#429=EDGE_CURVE('',#335,#335,#45,.T.);
#430=EDGE_CURVE('',#336,#336,#46,.T.);
#431=EDGE_CURVE('',#337,#337,#47,.T.);
#432=EDGE_CURVE('',#327,#333,#193,.T.);
#433=EDGE_CURVE('',#312,#337,#194,.T.);
#434=EDGE_CURVE('',#313,#336,#195,.T.);
#435=EDGE_CURVE('',#314,#335,#196,.T.);
#436=EDGE_CURVE('',#315,#334,#197,.T.);
#437=ORIENTED_EDGE('',*,*,#338,.T.);
#438=ORIENTED_EDGE('',*,*,#339,.T.);
#439=ORIENTED_EDGE('',*,*,#340,.T.);
#440=ORIENTED_EDGE('',*,*,#341,.T.);
#441=ORIENTED_EDGE('',*,*,#339,.F.);
#442=ORIENTED_EDGE('',*,*,#342,.F.);
#443=ORIENTED_EDGE('',*,*,#343,.F.);
#444=ORIENTED_EDGE('',*,*,#344,.F.);
#445=ORIENTED_EDGE('',*,*,#345,.F.);
#446=ORIENTED_EDGE('',*,*,#346,.F.);
#447=ORIENTED_EDGE('',*,*,#347,.F.);
#448=ORIENTED_EDGE('',*,*,#348,.F.);
#449=ORIENTED_EDGE('',*,*,#349,.T.);
#450=ORIENTED_EDGE('',*,*,#350,.T.);
#451=ORIENTED_EDGE('',*,*,#351,.T.);
#452=ORIENTED_EDGE('',*,*,#345,.T.);
#453=ORIENTED_EDGE('',*,*,#350,.F.);
#454=ORIENTED_EDGE('',*,*,#352,.F.);
#455=ORIENTED_EDGE('',*,*,#353,.F.);
#456=ORIENTED_EDGE('',*,*,#354,.F.);
#457=ORIENTED_EDGE('',*,*,#355,.F.);
#458=ORIENTED_EDGE('',*,*,#356,.F.);
#459=ORIENTED_EDGE('',*,*,#357,.F.);
#460=ORIENTED_EDGE('',*,*,#358,.T.);
#461=ORIENTED_EDGE('',*,*,#359,.T.);
#462=ORIENTED_EDGE('',*,*,#360,.T.);
#463=ORIENTED_EDGE('',*,*,#354,.T.);
#464=ORIENTED_EDGE('',*,*,#359,.F.);
#465=ORIENTED_EDGE('',*,*,#361,.F.);
#466=ORIENTED_EDGE('',*,*,#362,.F.);
#467=ORIENTED_EDGE('',*,*,#363,.F.);
#468=ORIENTED_EDGE('',*,*,#364,.T.);
#469=ORIENTED_EDGE('',*,*,#365,.T.);
#470=ORIENTED_EDGE('',*,*,#366,.T.);
#471=ORIENTED_EDGE('',*,*,#362,.T.);
#472=ORIENTED_EDGE('',*,*,#341,.F.);
#473=ORIENTED_EDGE('',*,*,#367,.F.);
#474=ORIENTED_EDGE('',*,*,#365,.F.);
#475=ORIENTED_EDGE('',*,*,#368,.F.);
#476=ORIENTED_EDGE('',*,*,#369,.T.);
#477=ORIENTED_EDGE('',*,*,#370,.T.);
#478=ORIENTED_EDGE('',*,*,#347,.T.);
#479=ORIENTED_EDGE('',*,*,#371,.T.);
#480=ORIENTED_EDGE('',*,*,#370,.F.);
#481=ORIENTED_EDGE('',*,*,#372,.T.);
#482=ORIENTED_EDGE('',*,*,#373,.F.);
#483=ORIENTED_EDGE('',*,*,#374,.T.);
#484=ORIENTED_EDGE('',*,*,#375,.F.);
#485=ORIENTED_EDGE('',*,*,#376,.T.);
#486=ORIENTED_EDGE('',*,*,#377,.F.);
#487=ORIENTED_EDGE('',*,*,#378,.F.);
#488=ORIENTED_EDGE('',*,*,#355,.T.);
#489=ORIENTED_EDGE('',*,*,#360,.F.);
#490=ORIENTED_EDGE('',*,*,#363,.T.);
#491=ORIENTED_EDGE('',*,*,#366,.F.);
#492=ORIENTED_EDGE('',*,*,#367,.T.);
#493=ORIENTED_EDGE('',*,*,#340,.F.);
#494=ORIENTED_EDGE('',*,*,#348,.T.);
#495=ORIENTED_EDGE('',*,*,#369,.F.);
#496=ORIENTED_EDGE('',*,*,#379,.F.);
#497=ORIENTED_EDGE('',*,*,#380,.F.);
#498=ORIENTED_EDGE('',*,*,#381,.T.);
#499=ORIENTED_EDGE('',*,*,#382,.F.);
#500=ORIENTED_EDGE('',*,*,#383,.F.);
#501=ORIENTED_EDGE('',*,*,#384,.F.);
#502=ORIENTED_EDGE('',*,*,#385,.F.);
#503=ORIENTED_EDGE('',*,*,#386,.F.);
#504=ORIENTED_EDGE('',*,*,#387,.F.);
#505=ORIENTED_EDGE('',*,*,#388,.F.);
#506=ORIENTED_EDGE('',*,*,#372,.F.);
#507=ORIENTED_EDGE('',*,*,#389,.T.);
#508=ORIENTED_EDGE('',*,*,#390,.T.);
#509=ORIENTED_EDGE('',*,*,#391,.T.);
#510=ORIENTED_EDGE('',*,*,#392,.T.);
#511=ORIENTED_EDGE('',*,*,#384,.T.);
#512=ORIENTED_EDGE('',*,*,#393,.T.);
#513=ORIENTED_EDGE('',*,*,#343,.T.);
#514=ORIENTED_EDGE('',*,*,#394,.T.);
#515=ORIENTED_EDGE('',*,*,#393,.F.);
#516=ORIENTED_EDGE('',*,*,#383,.T.);
#517=ORIENTED_EDGE('',*,*,#395,.F.);
#518=ORIENTED_EDGE('',*,*,#396,.T.);
#519=ORIENTED_EDGE('',*,*,#397,.F.);
#520=ORIENTED_EDGE('',*,*,#398,.T.);
#521=ORIENTED_EDGE('',*,*,#399,.F.);
#522=ORIENTED_EDGE('',*,*,#400,.F.);
#523=ORIENTED_EDGE('',*,*,#352,.T.);
#524=ORIENTED_EDGE('',*,*,#349,.F.);
#525=ORIENTED_EDGE('',*,*,#344,.T.);
#526=ORIENTED_EDGE('',*,*,#401,.T.);
#527=ORIENTED_EDGE('',*,*,#373,.T.);
#528=ORIENTED_EDGE('',*,*,#388,.T.);
#529=ORIENTED_EDGE('',*,*,#402,.T.);
#530=ORIENTED_EDGE('',*,*,#401,.F.);
#531=ORIENTED_EDGE('',*,*,#403,.T.);
#532=ORIENTED_EDGE('',*,*,#404,.F.);
#533=ORIENTED_EDGE('',*,*,#405,.F.);
#534=ORIENTED_EDGE('',*,*,#406,.F.);
#535=ORIENTED_EDGE('',*,*,#374,.F.);
#536=ORIENTED_EDGE('',*,*,#402,.F.);
#537=ORIENTED_EDGE('',*,*,#387,.T.);
#538=ORIENTED_EDGE('',*,*,#407,.F.);
#539=ORIENTED_EDGE('',*,*,#403,.F.);
#540=ORIENTED_EDGE('',*,*,#386,.T.);
#541=ORIENTED_EDGE('',*,*,#408,.T.);
#542=ORIENTED_EDGE('',*,*,#404,.T.);
#543=ORIENTED_EDGE('',*,*,#407,.T.);
#544=ORIENTED_EDGE('',*,*,#399,.T.);
#545=ORIENTED_EDGE('',*,*,#409,.T.);
#546=ORIENTED_EDGE('',*,*,#410,.T.);
#547=ORIENTED_EDGE('',*,*,#411,.T.);
#548=ORIENTED_EDGE('',*,*,#377,.T.);
#549=ORIENTED_EDGE('',*,*,#412,.T.);
#550=ORIENTED_EDGE('',*,*,#413,.T.);
#551=ORIENTED_EDGE('',*,*,#414,.T.);
#552=ORIENTED_EDGE('',*,*,#356,.T.);
#553=ORIENTED_EDGE('',*,*,#378,.T.);
#554=ORIENTED_EDGE('',*,*,#411,.F.);
#555=ORIENTED_EDGE('',*,*,#371,.F.);
#556=ORIENTED_EDGE('',*,*,#346,.T.);
#557=ORIENTED_EDGE('',*,*,#351,.F.);
#558=ORIENTED_EDGE('',*,*,#357,.T.);
#559=ORIENTED_EDGE('',*,*,#414,.F.);
#560=ORIENTED_EDGE('',*,*,#410,.F.);
#561=ORIENTED_EDGE('',*,*,#415,.T.);
#562=ORIENTED_EDGE('',*,*,#416,.F.);
#563=ORIENTED_EDGE('',*,*,#417,.T.);
#564=ORIENTED_EDGE('',*,*,#418,.F.);
#565=ORIENTED_EDGE('',*,*,#379,.T.);
#566=ORIENTED_EDGE('',*,*,#380,.T.);
#567=ORIENTED_EDGE('',*,*,#418,.T.);
#568=ORIENTED_EDGE('',*,*,#419,.T.);
#569=ORIENTED_EDGE('',*,*,#420,.T.);
#570=ORIENTED_EDGE('',*,*,#420,.F.);
#571=ORIENTED_EDGE('',*,*,#421,.T.);
#572=ORIENTED_EDGE('',*,*,#422,.F.);
#573=ORIENTED_EDGE('',*,*,#381,.F.);
#574=ORIENTED_EDGE('',*,*,#423,.T.);
#575=ORIENTED_EDGE('',*,*,#395,.T.);
#576=ORIENTED_EDGE('',*,*,#382,.T.);
#577=ORIENTED_EDGE('',*,*,#422,.T.);
#578=ORIENTED_EDGE('',*,*,#424,.T.);
#579=ORIENTED_EDGE('',*,*,#425,.T.);
#580=ORIENTED_EDGE('',*,*,#375,.T.);
#581=ORIENTED_EDGE('',*,*,#406,.T.);
#582=ORIENTED_EDGE('',*,*,#397,.T.);
#583=ORIENTED_EDGE('',*,*,#426,.T.);
#584=ORIENTED_EDGE('',*,*,#416,.T.);
#585=ORIENTED_EDGE('',*,*,#427,.T.);
#586=ORIENTED_EDGE('',*,*,#419,.F.);
#587=ORIENTED_EDGE('',*,*,#417,.F.);
#588=ORIENTED_EDGE('',*,*,#426,.F.);
#589=ORIENTED_EDGE('',*,*,#396,.F.);
#590=ORIENTED_EDGE('',*,*,#423,.F.);
#591=ORIENTED_EDGE('',*,*,#421,.F.);
#592=ORIENTED_EDGE('',*,*,#428,.T.);
#593=ORIENTED_EDGE('',*,*,#429,.T.);
#594=ORIENTED_EDGE('',*,*,#430,.T.);
#595=ORIENTED_EDGE('',*,*,#431,.T.);
#596=ORIENTED_EDGE('',*,*,#412,.F.);
#597=ORIENTED_EDGE('',*,*,#376,.F.);
#598=ORIENTED_EDGE('',*,*,#425,.F.);
#599=ORIENTED_EDGE('',*,*,#432,.F.);
#600=ORIENTED_EDGE('',*,*,#394,.F.);
#601=ORIENTED_EDGE('',*,*,#342,.T.);
#602=ORIENTED_EDGE('',*,*,#338,.F.);
#603=ORIENTED_EDGE('',*,*,#368,.T.);
#604=ORIENTED_EDGE('',*,*,#364,.F.);
#605=ORIENTED_EDGE('',*,*,#361,.T.);
#606=ORIENTED_EDGE('',*,*,#358,.F.);
#607=ORIENTED_EDGE('',*,*,#353,.T.);
#608=ORIENTED_EDGE('',*,*,#400,.T.);
#609=ORIENTED_EDGE('',*,*,#413,.F.);
#610=ORIENTED_EDGE('',*,*,#432,.T.);
#611=ORIENTED_EDGE('',*,*,#424,.F.);
#612=ORIENTED_EDGE('',*,*,#405,.T.);
#613=ORIENTED_EDGE('',*,*,#408,.F.);
#614=ORIENTED_EDGE('',*,*,#385,.T.);
#615=ORIENTED_EDGE('',*,*,#389,.F.);
#616=ORIENTED_EDGE('',*,*,#433,.T.);
#617=ORIENTED_EDGE('',*,*,#431,.F.);
#618=ORIENTED_EDGE('',*,*,#433,.F.);
#619=ORIENTED_EDGE('',*,*,#390,.F.);
#620=ORIENTED_EDGE('',*,*,#434,.T.);
#621=ORIENTED_EDGE('',*,*,#430,.F.);
#622=ORIENTED_EDGE('',*,*,#434,.F.);
#623=ORIENTED_EDGE('',*,*,#391,.F.);
#624=ORIENTED_EDGE('',*,*,#435,.T.);
#625=ORIENTED_EDGE('',*,*,#429,.F.);
#626=ORIENTED_EDGE('',*,*,#435,.F.);
#627=ORIENTED_EDGE('',*,*,#392,.F.);
#628=ORIENTED_EDGE('',*,*,#436,.T.);
#629=ORIENTED_EDGE('',*,*,#428,.F.);
#630=ORIENTED_EDGE('',*,*,#436,.F.);
#631=ORIENTED_EDGE('',*,*,#409,.F.);
#632=ORIENTED_EDGE('',*,*,#398,.F.);
#633=ORIENTED_EDGE('',*,*,#427,.F.);
#634=ORIENTED_EDGE('',*,*,#415,.F.);
#635=CYLINDRICAL_SURFACE('',#700,1.);
#636=CYLINDRICAL_SURFACE('',#706,1.);
#637=CYLINDRICAL_SURFACE('',#711,1.);
#638=CYLINDRICAL_SURFACE('',#715,1.);
#639=CYLINDRICAL_SURFACE('',#719,4.);
#640=CYLINDRICAL_SURFACE('',#734,4.);
#641=CYLINDRICAL_SURFACE('',#738,4.);
#642=CYLINDRICAL_SURFACE('',#743,4.);
#643=CYLINDRICAL_SURFACE('',#744,4.);
#644=CYLINDRICAL_SURFACE('',#747,4.);
#645=CYLINDRICAL_SURFACE('',#750,4.);
#646=CYLINDRICAL_SURFACE('',#753,4.);
#647=CYLINDRICAL_SURFACE('',#755,4.);
#648=CYLINDRICAL_SURFACE('',#757,4.);
#649=CYLINDRICAL_SURFACE('',#765,1.625);
#650=CYLINDRICAL_SURFACE('',#766,1.625);
#651=CYLINDRICAL_SURFACE('',#767,1.625);
#652=CYLINDRICAL_SURFACE('',#768,1.625);
#653=ADVANCED_FACE('',(#63),#635,.F.);
#654=ADVANCED_FACE('',(#64),#48,.F.);
#655=ADVANCED_FACE('',(#65),#636,.F.);
#656=ADVANCED_FACE('',(#66),#49,.F.);
#657=ADVANCED_FACE('',(#67),#637,.F.);
#658=ADVANCED_FACE('',(#68),#50,.F.);
#659=ADVANCED_FACE('',(#69),#638,.F.);
#660=ADVANCED_FACE('',(#70),#51,.F.);
#661=ADVANCED_FACE('',(#71),#639,.T.);
#662=ADVANCED_FACE('',(#72),#52,.T.);
#663=ADVANCED_FACE('',(#73,#16,#17,#18,#19),#53,.T.);
#664=ADVANCED_FACE('',(#74),#640,.T.);
#665=ADVANCED_FACE('',(#75),#54,.T.);
#666=ADVANCED_FACE('',(#76),#641,.T.);
#667=ADVANCED_FACE('',(#77),#55,.T.);
#668=ADVANCED_FACE('',(#78),#56,.T.);
#669=ADVANCED_FACE('',(#79),#642,.T.);
#670=ADVANCED_FACE('',(#80),#643,.T.);
#671=ADVANCED_FACE('',(#81),#644,.T.);
#672=ADVANCED_FACE('',(#82),#57,.T.);
#673=ADVANCED_FACE('',(#83),#645,.T.);
#674=ADVANCED_FACE('',(#84),#58,.T.);
#675=ADVANCED_FACE('',(#85),#646,.T.);
#676=ADVANCED_FACE('',(#86),#647,.T.);
#677=ADVANCED_FACE('',(#87),#648,.F.);
#678=ADVANCED_FACE('',(#88,#20,#21,#22,#23),#59,.T.);
#679=ADVANCED_FACE('',(#89),#60,.T.);
#680=ADVANCED_FACE('',(#90),#61,.T.);
#681=ADVANCED_FACE('',(#91),#649,.F.);
#682=ADVANCED_FACE('',(#92),#650,.F.);
#683=ADVANCED_FACE('',(#93),#651,.F.);
#684=ADVANCED_FACE('',(#94),#652,.F.);
#685=ADVANCED_FACE('',(#95),#62,.T.);
#686=CLOSED_SHELL('',(#653,#654,#655,#656,#657,#658,#659,#660,#661,#662,
#663,#664,#665,#666,#667,#668,#669,#670,#671,#672,#673,#674,#675,#676,#677,
#678,#679,#680,#681,#682,#683,#684,#685));
#687=DERIVED_UNIT_ELEMENT(#689,1.);
#688=DERIVED_UNIT_ELEMENT(#1180,-3.);
#689=(
MASS_UNIT()
NAMED_UNIT(*)
SI_UNIT(.KILO.,.GRAM.)
);
#690=DERIVED_UNIT((#687,#688));
#691=MEASURE_REPRESENTATION_ITEM('density measure',
POSITIVE_RATIO_MEASURE(1060.),#690);
#692=PROPERTY_DEFINITION_REPRESENTATION(#697,#694);
#693=PROPERTY_DEFINITION_REPRESENTATION(#698,#695);
#694=REPRESENTATION('material name',(#696),#1177);
#695=REPRESENTATION('density',(#691),#1177);
#696=DESCRIPTIVE_REPRESENTATION_ITEM('Plastica ABS','Plastica ABS');
#697=PROPERTY_DEFINITION('material property','material name',#1187);
#698=PROPERTY_DEFINITION('material property','density of part',#1187);
#699=AXIS2_PLACEMENT_3D('',#973,#770,#771);
#700=AXIS2_PLACEMENT_3D('',#974,#772,#773);
#701=AXIS2_PLACEMENT_3D('',#977,#774,#775);
#702=AXIS2_PLACEMENT_3D('',#981,#777,#778);
#703=AXIS2_PLACEMENT_3D('',#983,#780,#781);
#704=AXIS2_PLACEMENT_3D('',#987,#783,#784);
#705=AXIS2_PLACEMENT_3D('',#995,#788,#789);
#706=AXIS2_PLACEMENT_3D('',#997,#791,#792);
#707=AXIS2_PLACEMENT_3D('',#999,#793,#794);
#708=AXIS2_PLACEMENT_3D('',#1002,#796,#797);
#709=AXIS2_PLACEMENT_3D('',#1003,#798,#799);
#710=AXIS2_PLACEMENT_3D('',#1013,#804,#805);
#711=AXIS2_PLACEMENT_3D('',#1015,#807,#808);
#712=AXIS2_PLACEMENT_3D('',#1017,#809,#810);
#713=AXIS2_PLACEMENT_3D('',#1020,#812,#813);
#714=AXIS2_PLACEMENT_3D('',#1021,#814,#815);
#715=AXIS2_PLACEMENT_3D('',#1027,#819,#820);
#716=AXIS2_PLACEMENT_3D('',#1029,#821,#822);
#717=AXIS2_PLACEMENT_3D('',#1032,#824,#825);
#718=AXIS2_PLACEMENT_3D('',#1033,#826,#827);
#719=AXIS2_PLACEMENT_3D('',#1036,#830,#831);
#720=AXIS2_PLACEMENT_3D('',#1039,#832,#833);
#721=AXIS2_PLACEMENT_3D('',#1042,#836,#837);
#722=AXIS2_PLACEMENT_3D('',#1050,#841,#842);
#723=AXIS2_PLACEMENT_3D('',#1054,#844,#845);
#724=AXIS2_PLACEMENT_3D('',#1056,#847,#848);
#725=AXIS2_PLACEMENT_3D('',#1060,#850,#851);
#726=AXIS2_PLACEMENT_3D('',#1064,#853,#854);
#727=AXIS2_PLACEMENT_3D('',#1068,#856,#857);
#728=AXIS2_PLACEMENT_3D('',#1072,#859,#860);
#729=AXIS2_PLACEMENT_3D('',#1075,#862,#863);
#730=AXIS2_PLACEMENT_3D('',#1077,#864,#865);
#731=AXIS2_PLACEMENT_3D('',#1079,#866,#867);
#732=AXIS2_PLACEMENT_3D('',#1081,#868,#869);
#733=AXIS2_PLACEMENT_3D('',#1083,#870,#871);
#734=AXIS2_PLACEMENT_3D('',#1084,#872,#873);
#735=AXIS2_PLACEMENT_3D('',#1087,#876,#877);
#736=AXIS2_PLACEMENT_3D('',#1093,#880,#881);
#737=AXIS2_PLACEMENT_3D('',#1097,#883,#884);
#738=AXIS2_PLACEMENT_3D('',#1099,#886,#887);
#739=AXIS2_PLACEMENT_3D('',#1101,#888,#889);
#740=AXIS2_PLACEMENT_3D('',#1103,#891,#892);
#741=AXIS2_PLACEMENT_3D('',#1107,#894,#895);
#742=AXIS2_PLACEMENT_3D('',#1111,#898,#899);
#743=AXIS2_PLACEMENT_3D('',#1113,#901,#902);
#744=AXIS2_PLACEMENT_3D('',#1115,#904,#905);
#745=AXIS2_PLACEMENT_3D('',#1119,#907,#908);
#746=AXIS2_PLACEMENT_3D('',#1126,#910,#911);
#747=AXIS2_PLACEMENT_3D('',#1127,#912,#913);
#748=AXIS2_PLACEMENT_3D('',#1129,#915,#916);
#749=AXIS2_PLACEMENT_3D('',#1133,#918,#919);
#750=AXIS2_PLACEMENT_3D('',#1137,#922,#923);
#751=AXIS2_PLACEMENT_3D('',#1139,#924,#925);
#752=AXIS2_PLACEMENT_3D('',#1141,#927,#928);
#753=AXIS2_PLACEMENT_3D('',#1145,#931,#932);
#754=AXIS2_PLACEMENT_3D('',#1146,#933,#934);
#755=AXIS2_PLACEMENT_3D('',#1147,#935,#936);
#756=AXIS2_PLACEMENT_3D('',#1149,#937,#938);
#757=AXIS2_PLACEMENT_3D('',#1151,#940,#941);
#758=AXIS2_PLACEMENT_3D('',#1154,#944,#945);
#759=AXIS2_PLACEMENT_3D('',#1156,#946,#947);
#760=AXIS2_PLACEMENT_3D('',#1158,#948,#949);
#761=AXIS2_PLACEMENT_3D('',#1160,#950,#951);
#762=AXIS2_PLACEMENT_3D('',#1162,#952,#953);
#763=AXIS2_PLACEMENT_3D('',#1163,#954,#955);
#764=AXIS2_PLACEMENT_3D('',#1165,#957,#958);
#765=AXIS2_PLACEMENT_3D('',#1166,#959,#960);
#766=AXIS2_PLACEMENT_3D('',#1168,#962,#963);
#767=AXIS2_PLACEMENT_3D('',#1170,#965,#966);
#768=AXIS2_PLACEMENT_3D('',#1172,#968,#969);
#769=AXIS2_PLACEMENT_3D('',#1174,#971,#972);
#770=DIRECTION('axis',(0.,0.,1.));
#771=DIRECTION('refdir',(1.,0.,0.));
#772=DIRECTION('center_axis',(-1.,0.,0.));
#773=DIRECTION('ref_axis',(0.,0.0824805315444752,-0.996592676029751));
#774=DIRECTION('center_axis',(0.997199309888456,-1.0080269637132E-13,-0.0747899482416342));
#775=DIRECTION('ref_axis',(-0.0747899482416342,-1.34356888808554E-12,-0.997199309888456));
#776=DIRECTION('',(-1.,0.,0.));
#777=DIRECTION('center_axis',(-0.997199309888456,-1.0080269637132E-13,-0.0747899482416342));
#778=DIRECTION('ref_axis',(0.0747899482416342,-1.34356888808554E-12,-0.997199309888456));
#779=DIRECTION('',(1.,0.,0.));
#780=DIRECTION('center_axis',(0.,1.,-1.23660994863266E-12));
#781=DIRECTION('ref_axis',(0.,-1.23660994863266E-12,-1.));
#782=DIRECTION('',(-0.0747899482416342,-1.23314658737769E-12,-0.997199309888456));
#783=DIRECTION('center_axis',(0.,1.,-1.23660994863266E-12));
#784=DIRECTION('ref_axis',(0.999299582179553,-5.11060547242188E-14,-0.0374211845853638));
#785=DIRECTION('',(0.,-1.23660994863266E-12,-1.));
#786=DIRECTION('',(1.,0.,0.));
#787=DIRECTION('',(0.,1.23660994863266E-12,1.));
#788=DIRECTION('center_axis',(0.,1.,-1.23660994863266E-12));
#789=DIRECTION('ref_axis',(-0.999299582179553,-5.11060547242188E-14,-0.0374211845853638));
#790=DIRECTION('',(-0.0747899482416342,1.23314658737769E-12,0.997199309888456));
#791=DIRECTION('center_axis',(-1.,0.,0.));
#792=DIRECTION('ref_axis',(0.,0.289784148693718,0.957092026487452));
#793=DIRECTION('center_axis',(1.,0.,0.));
#794=DIRECTION('ref_axis',(0.,0.289784148693718,0.957092026487452));
#795=DIRECTION('',(-1.,0.,0.));
#796=DIRECTION('center_axis',(-1.,0.,0.));
#797=DIRECTION('ref_axis',(0.,0.289784148693718,0.957092026487452));
#798=DIRECTION('center_axis',(0.,-0.832050294332412,0.554700196233377));
#799=DIRECTION('ref_axis',(0.,0.554700196233377,0.832050294332412));
#800=DIRECTION('',(0.,0.554700196233377,0.832050294332412));
#801=DIRECTION('',(0.0622826184657995,0.5536232752628,0.830434912876581));
#802=DIRECTION('',(1.,0.,0.));
#803=DIRECTION('',(0.0622826184657995,-0.5536232752628,-0.830434912876581));
#804=DIRECTION('center_axis',(0.,-0.832050294332412,0.554700196233377));
#805=DIRECTION('ref_axis',(4.69097583101272E-17,-0.554700196233377,-0.832050294332412));
#806=DIRECTION('',(0.,-0.554700196233377,-0.832050294332412));
#807=DIRECTION('center_axis',(-1.,0.,0.));
#808=DIRECTION('ref_axis',(0.,-0.95709202648683,0.28978414869577));
#809=DIRECTION('center_axis',(0.997199309888456,-1.0080269637132E-13,-0.0747899482416342));
#810=DIRECTION('ref_axis',(0.0747899482416342,1.3422022946936E-12,0.997199309888456));
#811=DIRECTION('',(-1.,0.,0.));
#812=DIRECTION('center_axis',(-0.997199309888456,-1.0080269637132E-13,-0.0747899482416342));
#813=DIRECTION('ref_axis',(-0.0747899482416342,1.3422022946936E-12,0.997199309888456));
#814=DIRECTION('center_axis',(0.,-1.,5.5465970375541E-12));
#815=DIRECTION('ref_axis',(0.,5.5465970375541E-12,1.));
#816=DIRECTION('',(0.0747899482416342,5.5310627380783E-12,0.997199309888456));
#817=DIRECTION('',(1.,0.,0.));
#818=DIRECTION('',(0.0747899482416342,-5.5310627380783E-12,-0.997199309888456));
#819=DIRECTION('center_axis',(-1.,0.,0.));
#820=DIRECTION('ref_axis',(0.,-0.996592676029919,-0.0824805315424441));
#821=DIRECTION('center_axis',(0.997199309888456,-1.0080269637132E-13,-0.0747899482416342));
#822=DIRECTION('ref_axis',(-0.0747899482416343,-1.34036863773732E-12,-0.997199309888456));
#823=DIRECTION('',(-1.,0.,0.));
#824=DIRECTION('center_axis',(-0.997199309888456,-1.0080269637132E-13,-0.0747899482416342));
#825=DIRECTION('ref_axis',(0.0747899482416343,-1.34036863773732E-12,-0.997199309888456));
#826=DIRECTION('center_axis',(0.,-0.986393923832041,-0.164398987305972));
#827=DIRECTION('ref_axis',(0.,-0.164398987305972,0.986393923832041));
#828=DIRECTION('',(0.0737779274702955,0.163950949934657,-0.983705699604161));
#829=DIRECTION('',(0.0737779274702955,-0.163950949934657,0.983705699604161));
#830=DIRECTION('center_axis',(0.,1.,-1.34781075186258E-12));
#831=DIRECTION('ref_axis',(-0.999299582179553,-5.11060547242188E-14,-0.0374211845853638));
#832=DIRECTION('center_axis',(0.,-1.,1.23703605378248E-12));
#833=DIRECTION('ref_axis',(-0.999299582179553,-5.11060547242188E-14,-0.0374211845853638));
#834=DIRECTION('',(0.,-1.,1.34781075186258E-12));
#835=DIRECTION('',(0.,1.,-1.34781075186258E-12));
#836=DIRECTION('center_axis',(-0.997199309888456,-1.0080269637132E-13,-0.0747899482416342));
#837=DIRECTION('ref_axis',(-0.0747899482416342,0.,0.997199309888456));
#838=DIRECTION('',(0.0747899482416342,-1.23357149913903E-12,-0.997199309888456));
#839=DIRECTION('',(0.,1.,-1.34781075186258E-12));
#840=DIRECTION('',(-0.0737779274702955,-0.163950949934656,0.983705699604161));
#841=DIRECTION('center_axis',(0.997199309888456,1.0080269637132E-13,0.0747899482416342));
#842=DIRECTION('ref_axis',(0.0747899482416343,-1.34100868780697E-12,-0.997199309888456));
#843=DIRECTION('',(-0.0747899482416342,5.53047544718984E-12,0.997199309888456));
#844=DIRECTION('center_axis',(0.997199309888456,1.0080269637132E-13,0.0747899482416342));
#845=DIRECTION('ref_axis',(-0.0747899482416343,1.34279044881165E-12,0.997199309888456));
#846=DIRECTION('',(0.,-1.,1.34781075186258E-12));
#847=DIRECTION('center_axis',(0.,1.,-1.23703605378248E-12));
#848=DIRECTION('ref_axis',(0.,1.23703605378248E-12,1.));
#849=DIRECTION('',(0.,-1.23703605378248E-12,-1.));
#850=DIRECTION('center_axis',(0.,-1.,1.23703605378248E-12));
#851=DIRECTION('ref_axis',(-0.707106781186548,0.,0.707106781186547));
#852=DIRECTION('',(1.,0.,0.));
#853=DIRECTION('center_axis',(0.,-1.,1.23703605378248E-12));
#854=DIRECTION('ref_axis',(0.707106781186548,0.,0.707106781186547));
#855=DIRECTION('',(0.,1.23703605378248E-12,1.));
#856=DIRECTION('center_axis',(0.,-1.,1.23703605378248E-12));
#857=DIRECTION('ref_axis',(0.999299582179553,-5.11060547242188E-14,-0.0374211845853638));
#858=DIRECTION('',(0.0747899482416342,1.23357149913903E-12,0.997199309888456));
#859=DIRECTION('center_axis',(0.,-1.,1.23703605378248E-12));
#860=DIRECTION('ref_axis',(0.680150737615703,-9.87440703301698E-13,-0.733072284376387));
#861=DIRECTION('',(1.,0.,0.));
#862=DIRECTION('center_axis',(0.,-1.,1.23703605378248E-12));
#863=DIRECTION('ref_axis',(-0.680150737615703,-9.87440703301698E-13,-0.733072284376387));
#864=DIRECTION('center_axis',(0.,-1.,1.23703605378248E-12));
#865=DIRECTION('ref_axis',(-1.,0.,0.));
#866=DIRECTION('center_axis',(0.,-1.,1.23703605378248E-12));
#867=DIRECTION('ref_axis',(-1.,0.,0.));
#868=DIRECTION('center_axis',(0.,-1.,1.23703605378248E-12));
#869=DIRECTION('ref_axis',(-1.,0.,0.));
#870=DIRECTION('center_axis',(0.,-1.,1.23703605378248E-12));
#871=DIRECTION('ref_axis',(-1.,0.,0.));
#872=DIRECTION('center_axis',(0.,-1.,1.34781075186258E-12));
#873=DIRECTION('ref_axis',(0.999299582179553,-5.11060547242188E-14,-0.0374211845853638));
#874=DIRECTION('',(0.,-1.,1.34781075186258E-12));
#875=DIRECTION('',(0.,1.,-1.34781075186258E-12));
#876=DIRECTION('center_axis',(1.,0.,0.));
#877=DIRECTION('ref_axis',(0.,0.,-1.));
#878=DIRECTION('',(0.,1.,4.16333634234434E-16));
#879=DIRECTION('',(0.,-2.12534473263464E-12,-1.));
#880=DIRECTION('center_axis',(1.,0.,0.));
#881=DIRECTION('ref_axis',(0.,0.957092026487326,-0.289784148694134));
#882=DIRECTION('',(0.,-0.554700196233378,-0.832050294332411));
#883=DIRECTION('center_axis',(-1.,0.,0.));
#884=DIRECTION('ref_axis',(0.,-0.95709202648683,0.289784148695771));
#885=DIRECTION('',(0.,-1.,1.34781075186258E-12));
#886=DIRECTION('center_axis',(0.,-1.,1.34781075186258E-12));
#887=DIRECTION('ref_axis',(-0.680150737615703,-9.87440703301698E-13,-0.733072284376387));
#888=DIRECTION('center_axis',(0.,0.986393923832041,0.164398987305971));
#889=DIRECTION('ref_axis',(-2.80623794182038E-15,0.164398987305971,-0.986393923832041));
#890=DIRECTION('',(0.,-1.,1.34781075186258E-12));
#891=DIRECTION('center_axis',(0.,-0.986393923832041,-0.164398987305971));
#892=DIRECTION('ref_axis',(0.,0.164398987305971,-0.986393923832041));
#893=DIRECTION('',(1.,0.,0.));
#894=DIRECTION('center_axis',(0.,0.986393923832041,0.164398987305971));
#895=DIRECTION('ref_axis',(2.80623794182038E-15,0.164398987305971,-0.986393923832041));
#896=DIRECTION('',(-0.0737779274702955,0.163950949934656,-0.983705699604161));
#897=DIRECTION('',(1.,0.,0.));
#898=DIRECTION('center_axis',(0.,-1.34781075186258E-12,-1.));
#899=DIRECTION('ref_axis',(0.,1.,-1.34781075186258E-12));
#900=DIRECTION('',(0.,1.,-1.34781075186258E-12));
#901=DIRECTION('center_axis',(0.,1.,-1.34781075186258E-12));
#902=DIRECTION('ref_axis',(0.680150737615703,-9.87440703301698E-13,-0.733072284376387));
#903=DIRECTION('',(0.,-1.,1.34781075186258E-12));
#904=DIRECTION('center_axis',(1.,0.,0.));
#905=DIRECTION('ref_axis',(0.,-0.95709202648683,0.289784148695771));
#906=DIRECTION('',(-1.,0.,0.));
#907=DIRECTION('center_axis',(1.,0.,0.));
#908=DIRECTION('ref_axis',(0.,-0.95709202648683,0.289784148695771));
#909=DIRECTION('',(1.,0.,0.));
#910=DIRECTION('center_axis',(-0.997199309888456,1.0080269637132E-13,0.0747899482416342));
#911=DIRECTION('ref_axis',(0.0747899482416343,1.34279044881165E-12,0.997199309888456));
#912=DIRECTION('center_axis',(0.,1.,-1.34781075186258E-12));
#913=DIRECTION('ref_axis',(-0.999299582179553,-5.11060547242188E-14,-0.0374211845853638));
#914=DIRECTION('',(0.,1.,-1.34781075186258E-12));
#915=DIRECTION('center_axis',(-1.,0.,0.));
#916=DIRECTION('ref_axis',(0.,0.,1.));
#917=DIRECTION('',(0.,0.554700196233378,0.832050294332411));
#918=DIRECTION('center_axis',(-1.,0.,0.));
#919=DIRECTION('ref_axis',(0.,0.957092026487326,-0.289784148694134));
#920=DIRECTION('',(0.,2.12534473263464E-12,1.));
#921=DIRECTION('',(0.,-1.,-4.16333634234434E-16));
#922=DIRECTION('center_axis',(0.,1.,4.16333634234434E-16));
#923=DIRECTION('ref_axis',(-0.707106781186548,0.,0.707106781186547));
#924=DIRECTION('center_axis',(0.,1.,-2.12534473263464E-12));
#925=DIRECTION('ref_axis',(-0.707106781186548,0.,0.707106781186547));
#926=DIRECTION('',(0.,1.,4.16333634234434E-16));
#927=DIRECTION('center_axis',(0.,-4.16333634234434E-16,1.));
#928=DIRECTION('ref_axis',(0.,-1.,-4.16333634234434E-16));
#929=DIRECTION('',(1.,0.,0.));
#930=DIRECTION('',(0.,-1.,-4.16333634234434E-16));
#931=DIRECTION('center_axis',(0.,-1.,-4.16333634234434E-16));
#932=DIRECTION('ref_axis',(0.707106781186548,0.,0.707106781186547));
#933=DIRECTION('center_axis',(0.,1.,-2.12534473263464E-12));
#934=DIRECTION('ref_axis',(0.707106781186548,0.,0.707106781186547));
#935=DIRECTION('center_axis',(1.,0.,0.));
#936=DIRECTION('ref_axis',(0.,-0.99659267602992,-0.0824805315424396));
#937=DIRECTION('center_axis',(-0.997199309888456,1.0080269637132E-13,0.0747899482416342));
#938=DIRECTION('ref_axis',(-0.0747899482416343,-1.34100868780697E-12,-0.997199309888456));
#939=DIRECTION('',(-1.,0.,0.));
#940=DIRECTION('center_axis',(-1.,0.,0.));
#941=DIRECTION('ref_axis',(0.,0.957092026487326,-0.289784148694134));
#942=DIRECTION('',(-1.,0.,0.));
#943=DIRECTION('',(1.,0.,0.));
#944=DIRECTION('center_axis',(0.,-1.,2.12534473263464E-12));
#945=DIRECTION('ref_axis',(0.,-2.12534473263464E-12,-1.));
#946=DIRECTION('center_axis',(0.,1.,-2.12534473263464E-12));
#947=DIRECTION('ref_axis',(-1.,0.,0.));
#948=DIRECTION('center_axis',(0.,1.,-2.12534473263464E-12));
#949=DIRECTION('ref_axis',(-1.,0.,0.));
#950=DIRECTION('center_axis',(0.,1.,-2.12534473263464E-12));
#951=DIRECTION('ref_axis',(-1.,0.,0.));
#952=DIRECTION('center_axis',(0.,1.,-2.12534473263464E-12));
#953=DIRECTION('ref_axis',(-1.,0.,0.));
#954=DIRECTION('center_axis',(0.,-1.,5.54600809722628E-12));
#955=DIRECTION('ref_axis',(0.,-5.54600809722628E-12,-1.));
#956=DIRECTION('',(-0.0747899482416342,-5.53047544718984E-12,-0.997199309888456));
#957=DIRECTION('center_axis',(0.997199309888456,-1.0080269637132E-13,-0.0747899482416342));
#958=DIRECTION('ref_axis',(-0.0747899482416342,0.,-0.997199309888456));
#959=DIRECTION('center_axis',(0.,-1.,0.));
#960=DIRECTION('ref_axis',(-1.,0.,0.));
#961=DIRECTION('',(0.,-1.,0.));
#962=DIRECTION('center_axis',(0.,-1.,0.));
#963=DIRECTION('ref_axis',(-1.,0.,0.));
#964=DIRECTION('',(0.,-1.,0.));
#965=DIRECTION('center_axis',(0.,-1.,0.));
#966=DIRECTION('ref_axis',(-1.,0.,0.));
#967=DIRECTION('',(0.,-1.,0.));
#968=DIRECTION('center_axis',(0.,-1.,0.));
#969=DIRECTION('ref_axis',(-1.,0.,0.));
#970=DIRECTION('',(0.,-1.,0.));
#971=DIRECTION('center_axis',(0.,-0.832050294332411,0.554700196233378));
#972=DIRECTION('ref_axis',(0.,-0.554700196233378,-0.832050294332411));
#973=CARTESIAN_POINT('',(0.,0.,0.));
#974=CARTESIAN_POINT('Origin',(10.,39.9999999998789,-87.9133887908939));
#975=CARTESIAN_POINT('',(5.82491321447948,39.0136060760469,-88.0777877781999));
#976=CARTESIAN_POINT('',(5.83724313852753,40.9999999998789,-87.9133887908952));
#977=CARTESIAN_POINT('Origin',(5.83724313852753,39.9999999998789,-87.9133887908939));
#978=CARTESIAN_POINT('',(-5.83724313852753,40.9999999998789,-87.9133887908952));
#979=CARTESIAN_POINT('',(10.,40.9999999998789,-87.9133887908952));
#980=CARTESIAN_POINT('',(-5.82491321447948,39.0136060760469,-88.0777877781999));
#981=CARTESIAN_POINT('Origin',(-5.83724313852752,39.9999999998789,-87.9133887908939));
#982=CARTESIAN_POINT('',(10.,39.0136060760469,-88.0777877781999));
#983=CARTESIAN_POINT('Origin',(10.,40.9999999999605,-21.923842159906));
#984=CARTESIAN_POINT('',(9.98879723955383,40.9999999999473,-32.5593341105446));
#985=CARTESIAN_POINT('',(8.89103002404065,40.9999999999292,-47.196230317387));
#986=CARTESIAN_POINT('',(10.,40.9999999999477,-32.2601743175781));
#987=CARTESIAN_POINT('Origin',(6.,40.9999999999466,-32.2601743175781));
#988=CARTESIAN_POINT('',(10.,40.9999999999564,-25.226617797587));
#989=CARTESIAN_POINT('',(10.,40.9999999999424,-36.5644120727727));
#990=CARTESIAN_POINT('',(-10.,40.9999999999564,-25.226617797587));
#991=CARTESIAN_POINT('',(10.,40.9999999999564,-25.226617797587));
#992=CARTESIAN_POINT('',(-10.,40.9999999999477,-32.2601743175781));
#993=CARTESIAN_POINT('',(-10.,40.9999999999424,-36.5644120727727));
#994=CARTESIAN_POINT('',(-9.98879723955383,40.9999999999473,-32.5593341105446));
#995=CARTESIAN_POINT('Origin',(-6.,40.9999999999466,-32.2601743175781));
#996=CARTESIAN_POINT('',(-8.83509466046078,40.9999999999283,-47.9420351651185));
#997=CARTESIAN_POINT('Origin',(10.,39.9999999999564,-25.2266177975858));
#998=CARTESIAN_POINT('',(10.,39.167949705624,-24.6719176013524));
#999=CARTESIAN_POINT('Origin',(10.,39.9999999999564,-25.2266177975858));
#1000=CARTESIAN_POINT('',(-10.,39.167949705624,-24.6719176013524));
#1001=CARTESIAN_POINT('',(10.,39.167949705624,-24.6719176013524));
#1002=CARTESIAN_POINT('Origin',(-10.,39.9999999999564,-25.2266177975858));
#1003=CARTESIAN_POINT('Origin',(10.,32.9999999997212,-33.9238421600104));
#1004=CARTESIAN_POINT('',(10.,34.0092521255809,-32.4099639712529));
#1005=CARTESIAN_POINT('',(10.,29.6274292707301,-38.9826982533897));
#1006=CARTESIAN_POINT('',(9.90535347773011,33.1679497053871,-33.6719176015169));
#1007=CARTESIAN_POINT('',(8.96338030974279,24.794854878663,-46.2315598413366));
#1008=CARTESIAN_POINT('',(-9.90535347773011,33.1679497053871,-33.6719176015169));
#1009=CARTESIAN_POINT('',(10.,33.1679497053871,-33.6719176015169));
#1010=CARTESIAN_POINT('',(-9.98879723955383,33.909672032724,-32.559334110535));
#1011=CARTESIAN_POINT('',(-8.92458906411323,24.4500438063932,-46.7487764497303));
#1012=CARTESIAN_POINT('',(-10.,34.1091118947058,-32.2601743175688));
#1013=CARTESIAN_POINT('Origin',(-6.,34.1091118947058,-32.2601743175688));
#1014=CARTESIAN_POINT('',(-10.,29.6274292707301,-38.9826982533897));
#1015=CARTESIAN_POINT('Origin',(10.,33.9999999997195,-34.2266177977503));
#1016=CARTESIAN_POINT('',(9.86375096301301,32.9999999997195,-34.2266177977447));
#1017=CARTESIAN_POINT('Origin',(9.86375096301269,33.9999999997195,-34.2266177977503));
#1018=CARTESIAN_POINT('',(-9.86375096301301,32.9999999997195,-34.2266177977447));
#1019=CARTESIAN_POINT('',(10.,32.9999999997195,-34.2266177977447));
#1020=CARTESIAN_POINT('Origin',(-9.86375096301269,33.9999999997195,-34.2266177977503));
#1021=CARTESIAN_POINT('Origin',(10.,32.9999999996209,-51.9961513197829));
#1022=CARTESIAN_POINT('',(8.53724313863274,32.9999999996214,-51.9133887894816));
#1023=CARTESIAN_POINT('',(7.76962632634509,32.9999999995646,-62.1482796199837));
#1024=CARTESIAN_POINT('',(-8.53724313863274,32.9999999996214,-51.9133887894816));
#1025=CARTESIAN_POINT('',(10.,32.9999999996214,-51.9133887894816));
#1026=CARTESIAN_POINT('',(-7.71369096276523,32.9999999995605,-62.8940844677152));
#1027=CARTESIAN_POINT('Origin',(10.,33.9999999996214,-51.9133887894871));
#1028=CARTESIAN_POINT('',(8.52491321458438,33.0136060757893,-52.0777877767931));
#1029=CARTESIAN_POINT('Origin',(8.53724313863243,33.9999999996214,-51.9133887894871));
#1030=CARTESIAN_POINT('',(-8.52491321458438,33.0136060757893,-52.0777877767931));
#1031=CARTESIAN_POINT('',(10.,33.0136060757893,-52.0777877767931));
#1032=CARTESIAN_POINT('Origin',(-8.53724313863242,33.9999999996214,-51.9133887894871));
#1033=CARTESIAN_POINT('Origin',(10.,40.999999999864,-99.9961513210567));
#1034=CARTESIAN_POINT('',(-5.91824294137662,38.8062066829413,-86.8333914195711));
#1035=CARTESIAN_POINT('',(5.97267476719474,38.6852470700116,-86.107633741996));
#1036=CARTESIAN_POINT('Origin',(-6.,37.2499999998173,-32.260174317573));
#1037=CARTESIAN_POINT('',(-10.,45.9999999999477,-32.2601743175848));
#1038=CARTESIAN_POINT('',(-9.98879723955383,45.9999999999473,-32.5593341105513));
#1039=CARTESIAN_POINT('Origin',(-6.,45.9999999999566,-32.2601743175848));
#1040=CARTESIAN_POINT('',(-9.98879723955383,37.2499999998169,-32.5593341105396));
#1041=CARTESIAN_POINT('',(-10.,37.2499999998173,-32.260174317573));
#1042=CARTESIAN_POINT('Origin',(-7.,37.4999999997456,-72.4099639712576));
#1043=CARTESIAN_POINT('',(-4.27756301552751,45.9999999998531,-108.709123764236));
#1044=CARTESIAN_POINT('',(-5.48881292728406,45.9999999998731,-92.5591249408148));
#1045=CARTESIAN_POINT('',(-4.27756301552751,37.3831932984817,-108.709123764224));
#1046=CARTESIAN_POINT('',(-4.27756301552751,37.749999999679,-108.709123764224));
#1047=CARTESIAN_POINT('',(-8.4755090628957,28.0544243042923,-52.7365097993022));
#1048=CARTESIAN_POINT('',(-7.68957059337236,29.8009542365735,-63.215689392949));
#1049=CARTESIAN_POINT('',(-8.52482875908915,27.9999999996205,-52.0789138500561));
#1050=CARTESIAN_POINT('Origin',(-8.52482875908789,31.9999999996205,-52.0789138500783));
#1051=CARTESIAN_POINT('',(-9.90916730867473,27.9999999997228,-33.6210665222484));
#1052=CARTESIAN_POINT('',(-8.47203231820908,27.9999999996166,-52.7828663951237));
#1053=CARTESIAN_POINT('',(-9.98879723955383,28.1434828811489,-32.5593341105273));
#1054=CARTESIAN_POINT('Origin',(-9.90916730867347,31.9999999997228,-33.6210665222705));
#1055=CARTESIAN_POINT('',(-9.98879723955383,37.2499999998169,-32.5593341105396));
#1056=CARTESIAN_POINT('Origin',(0.,45.9999999998486,-112.409963971269));
#1057=CARTESIAN_POINT('',(-10.,45.999999999995,5.99999999999998));
#1058=CARTESIAN_POINT('',(-10.,46.,9.99999999999998));
#1059=CARTESIAN_POINT('',(-6.,46.,9.99999999999998));
#1060=CARTESIAN_POINT('Origin',(-6.,45.9999999998485,5.99999999999998));
#1061=CARTESIAN_POINT('',(6.,46.,9.99999999999998));
#1062=CARTESIAN_POINT('',(0.,46.,9.99999999999998));
#1063=CARTESIAN_POINT('',(10.,45.999999999995,5.99999999999998));
#1064=CARTESIAN_POINT('Origin',(6.,45.9999999998485,5.99999999999998));
#1065=CARTESIAN_POINT('',(10.,45.9999999999477,-32.2601743175848));
#1066=CARTESIAN_POINT('',(10.,46.,9.99999999999998));
#1067=CARTESIAN_POINT('',(9.98879723955383,45.9999999999473,-32.5593341105513));
#1068=CARTESIAN_POINT('Origin',(6.,45.9999999999566,-32.2601743175848));
#1069=CARTESIAN_POINT('',(4.27756301552751,45.9999999998531,-108.709123764236));
#1070=CARTESIAN_POINT('',(5.48881292728406,45.9999999998731,-92.5591249408148));
#1071=CARTESIAN_POINT('',(0.288765775973683,45.9999999998486,-112.409963971269));
#1072=CARTESIAN_POINT('Origin',(0.288765775973683,45.999999999854,-108.409963971269));
#1073=CARTESIAN_POINT('',(-0.288765775973683,45.9999999998486,-112.409963971269));
#1074=CARTESIAN_POINT('',(0.,45.9999999998486,-112.409963971269));
#1075=CARTESIAN_POINT('Origin',(-0.288765775973683,45.999999999854,-108.409963971269));
#1076=CARTESIAN_POINT('',(6.625,45.9999999999876,5.00000007450581));
#1077=CARTESIAN_POINT('Origin',(5.,45.9999999998486,5.00000007450581));
#1078=CARTESIAN_POINT('',(6.62500007450581,45.9999999999876,-5.));
#1079=CARTESIAN_POINT('Origin',(5.00000007450581,45.9999999998486,-5.));
#1080=CARTESIAN_POINT('',(-3.37500007450581,45.9999999999876,5.));
#1081=CARTESIAN_POINT('Origin',(-5.00000007450581,45.9999999998486,5.));
#1082=CARTESIAN_POINT('',(-3.375,45.9999999999876,-5.00000007450581));
#1083=CARTESIAN_POINT('Origin',(-5.,45.9999999998486,-5.00000007450581));
#1084=CARTESIAN_POINT('Origin',(6.,37.2499999998173,-32.260174317573));
#1085=CARTESIAN_POINT('',(10.,37.2499999998173,-32.260174317573));
#1086=CARTESIAN_POINT('',(9.98879723955383,37.2499999998169,-32.5593341105396));
#1087=CARTESIAN_POINT('Origin',(10.,36.9999999998093,-51.2049819856345));
#1088=CARTESIAN_POINT('',(10.,37.9999999999915,5.99999999999998));
#1089=CARTESIAN_POINT('',(10.,41.4999999999046,5.99999999999998));
#1090=CARTESIAN_POINT('',(10.,37.9999999999443,-16.1988614203664));
#1091=CARTESIAN_POINT('',(10.,37.9999999999417,-17.4099639713111));
#1092=CARTESIAN_POINT('',(10.,37.328201177274,-18.4176622052914));
#1093=CARTESIAN_POINT('Origin',(10.,33.9999999999443,-16.1988614203579));
#1094=CARTESIAN_POINT('',(10.,28.6717988223932,-31.402265737337));
#1095=CARTESIAN_POINT('',(10.,27.9999999997295,-32.4099639713111));
#1096=CARTESIAN_POINT('',(10.,28.1877525509206,-32.409963971245));
#1097=CARTESIAN_POINT('Origin',(10.,31.9999999997228,-33.6210665222705));
#1098=CARTESIAN_POINT('',(10.,37.4999999997995,-32.4099639712576));
#1099=CARTESIAN_POINT('Origin',(-0.288765775973683,37.7499999996795,-108.409963971258));
#1100=CARTESIAN_POINT('',(-0.288765775973683,37.9999999996565,-112.409963971258));
#1101=CARTESIAN_POINT('Origin',(-0.288765775973683,37.3333333329871,-108.409963971257));
#1102=CARTESIAN_POINT('',(-0.288765775973683,37.7499999996741,-112.409963971258));
#1103=CARTESIAN_POINT('Origin',(0.,27.9999999996186,-52.4099639712614));
#1104=CARTESIAN_POINT('',(0.288765775973683,37.9999999996565,-112.409963971258));
#1105=CARTESIAN_POINT('',(0.,37.9999999996565,-112.409963971258));
#1106=CARTESIAN_POINT('',(4.27756301552751,37.3831932984817,-108.709123764224));
#1107=CARTESIAN_POINT('Origin',(0.288765775973683,37.3333333329871,-108.409963971257));
#1108=CARTESIAN_POINT('',(8.4755090628957,28.0544243042923,-52.7365097993022));
#1109=CARTESIAN_POINT('',(7.68957059337236,29.8009542365735,-63.215689392949));
#1110=CARTESIAN_POINT('',(0.,28.0544243042923,-52.7365097993022));
#1111=CARTESIAN_POINT('Origin',(0.,37.9999999996565,-112.409963971258));
#1112=CARTESIAN_POINT('',(0.288765775973683,37.7499999996741,-112.409963971258));
#1113=CARTESIAN_POINT('Origin',(0.288765775973683,37.7499999996795,-108.409963971258));
#1114=CARTESIAN_POINT('',(4.27756301552751,37.749999999679,-108.709123764224));
#1115=CARTESIAN_POINT('Origin',(0.,31.9999999997228,-33.6210665222705));
#1116=CARTESIAN_POINT('',(-10.,28.6717988223932,-31.402265737337));
#1117=CARTESIAN_POINT('',(0.,28.6717988223932,-31.402265737337));
#1118=CARTESIAN_POINT('',(-10.,28.2386209431585,-32.2601743175609));
#1119=CARTESIAN_POINT('Origin',(-10.,31.9999999997228,-33.6210665222705));
#1120=CARTESIAN_POINT('Ctrl Pts',(-10.,28.2386209431585,-32.2601743175609));
#1121=CARTESIAN_POINT('Ctrl Pts',(-10.,28.2029592301898,-32.358739964287));
#1122=CARTESIAN_POINT('Ctrl Pts',(-9.99635679112506,28.171232344113,-32.4585400895776));
#1123=CARTESIAN_POINT('Ctrl Pts',(-9.98879723955383,28.1434828811489,-32.5593341105273));
#1124=CARTESIAN_POINT('',(9.90916730867473,27.9999999997228,-33.6210665222484));
#1125=CARTESIAN_POINT('',(0.,27.9999999997228,-33.6210665222484));
#1126=CARTESIAN_POINT('Origin',(9.90916730867347,31.9999999997228,-33.6210665222705));
#1127=CARTESIAN_POINT('Origin',(-6.,37.2499999998173,-32.260174317573));
#1128=CARTESIAN_POINT('',(-10.,37.2499999998173,-32.260174317573));
#1129=CARTESIAN_POINT('Origin',(-10.,36.9999999998093,-51.2049819856345));
#1130=CARTESIAN_POINT('',(-10.,37.328201177274,-18.4176622052914));
#1131=CARTESIAN_POINT('',(-10.,27.9999999997295,-32.4099639713111));
#1132=CARTESIAN_POINT('',(-10.,37.9999999999443,-16.1988614203664));
#1133=CARTESIAN_POINT('Origin',(-10.,33.9999999999443,-16.1988614203579));
#1134=CARTESIAN_POINT('',(-10.,37.9999999999915,5.99999999999998));
#1135=CARTESIAN_POINT('',(-10.,37.9999999999417,-17.4099639713111));
#1136=CARTESIAN_POINT('',(-10.,41.4999999999046,5.99999999999998));
#1137=CARTESIAN_POINT('Origin',(-6.,41.4999999999046,5.99999999999998));
#1138=CARTESIAN_POINT('',(-6.,38.,9.99999999999997));
#1139=CARTESIAN_POINT('Origin',(-6.,38.,5.99999999999998));
#1140=CARTESIAN_POINT('',(-6.,41.4999999999046,9.99999999999998));
#1141=CARTESIAN_POINT('Origin',(0.,46.,9.99999999999998));
#1142=CARTESIAN_POINT('',(6.,38.,9.99999999999997));
#1143=CARTESIAN_POINT('',(0.,38.,9.99999999999997));
#1144=CARTESIAN_POINT('',(6.,41.4999999999046,9.99999999999998));
#1145=CARTESIAN_POINT('Origin',(6.,41.4999999999046,5.99999999999998));
#1146=CARTESIAN_POINT('Origin',(6.,38.,5.99999999999998));
#1147=CARTESIAN_POINT('Origin',(0.,31.9999999996205,-52.0789138500783));
#1148=CARTESIAN_POINT('',(8.52482875908915,27.9999999996205,-52.0789138500561));
#1149=CARTESIAN_POINT('Origin',(8.52482875908789,31.9999999996205,-52.0789138500783));
#1150=CARTESIAN_POINT('',(0.,27.9999999996205,-52.0789138500561));
#1151=CARTESIAN_POINT('Origin',(0.,33.9999999999443,-16.1988614203579));
#1152=CARTESIAN_POINT('',(0.,37.9999999999443,-16.1988614203664));
#1153=CARTESIAN_POINT('',(0.,37.328201177274,-18.4176622052914));
#1154=CARTESIAN_POINT('Origin',(0.,38.,9.99999999999997));
#1155=CARTESIAN_POINT('',(-3.375,38.,-5.00000007450581));
#1156=CARTESIAN_POINT('Origin',(-5.,38.,-5.00000007450581));
#1157=CARTESIAN_POINT('',(-3.37500007450581,38.,5.));
#1158=CARTESIAN_POINT('Origin',(-5.00000007450581,38.,5.));
#1159=CARTESIAN_POINT('',(6.62500007450581,38.,-5.));
#1160=CARTESIAN_POINT('Origin',(5.00000007450581,38.,-5.));
#1161=CARTESIAN_POINT('',(6.625,38.,5.00000007450581));
#1162=CARTESIAN_POINT('Origin',(5.,38.,5.00000007450581));
#1163=CARTESIAN_POINT('Origin',(0.,27.9999999997295,-32.4099639713111));
#1164=CARTESIAN_POINT('',(8.47203231820908,27.9999999996166,-52.7828663951237));
#1165=CARTESIAN_POINT('Origin',(7.,37.4999999997456,-72.4099639712576));
#1166=CARTESIAN_POINT('Origin',(5.,45.9999999999876,5.00000007450581));
#1167=CARTESIAN_POINT('',(6.625,45.9999999999876,5.00000007450581));
#1168=CARTESIAN_POINT('Origin',(5.00000007450581,45.9999999999876,-5.));
#1169=CARTESIAN_POINT('',(6.62500007450581,45.9999999999876,-5.));
#1170=CARTESIAN_POINT('Origin',(-5.00000007450581,45.9999999999876,5.));
#1171=CARTESIAN_POINT('',(-3.37500007450581,45.9999999999876,5.));
#1172=CARTESIAN_POINT('Origin',(-5.,45.9999999999876,-5.00000007450581));
#1173=CARTESIAN_POINT('',(-3.375,45.9999999999876,-5.00000007450581));
#1174=CARTESIAN_POINT('Origin',(0.,37.9999999999417,-17.4099639713111));
#1175=UNCERTAINTY_MEASURE_WITH_UNIT(LENGTH_MEASURE(0.01),#1179,
'DISTANCE_ACCURACY_VALUE',
'Maximum model space distance between geometric entities at asserted c
onnectivities');
#1176=UNCERTAINTY_MEASURE_WITH_UNIT(LENGTH_MEASURE(0.01),#1179,
'DISTANCE_ACCURACY_VALUE',
'Maximum model space distance between geometric entities at asserted c
onnectivities');
#1177=(
GEOMETRIC_REPRESENTATION_CONTEXT(3)
GLOBAL_UNCERTAINTY_ASSIGNED_CONTEXT((#1175))
GLOBAL_UNIT_ASSIGNED_CONTEXT((#1179,#1181,#1182))
REPRESENTATION_CONTEXT('','3D')
);
#1178=(
GEOMETRIC_REPRESENTATION_CONTEXT(3)
GLOBAL_UNCERTAINTY_ASSIGNED_CONTEXT((#1176))
GLOBAL_UNIT_ASSIGNED_CONTEXT((#1179,#1181,#1182))
REPRESENTATION_CONTEXT('','3D')
);
#1179=(
LENGTH_UNIT()
NAMED_UNIT(*)
SI_UNIT(.MILLI.,.METRE.)
);
#1180=(
LENGTH_UNIT()
NAMED_UNIT(*)
SI_UNIT($,.METRE.)
);
#1181=(
NAMED_UNIT(*)
PLANE_ANGLE_UNIT()
SI_UNIT($,.RADIAN.)
);
#1182=(
NAMED_UNIT(*)
SI_UNIT($,.STERADIAN.)
SOLID_ANGLE_UNIT()
);
#1183=SHAPE_DEFINITION_REPRESENTATION(#1184,#1185);
#1184=PRODUCT_DEFINITION_SHAPE('',$,#1187);
#1185=SHAPE_REPRESENTATION('',(#699),#1177);
#1186=PRODUCT_DEFINITION_CONTEXT('part definition',#1191,'design');
#1187=PRODUCT_DEFINITION('Tibia - Variant','Tibia - Variant v6',#1188,#1186);
#1188=PRODUCT_DEFINITION_FORMATION('',$,#1193);
#1189=PRODUCT_RELATED_PRODUCT_CATEGORY('Tibia - Variant v6',
'Tibia - Variant v6',(#1193));
#1190=APPLICATION_PROTOCOL_DEFINITION('international standard',
'automotive_design',2009,#1191);
#1191=APPLICATION_CONTEXT(
'Core Data for Automotive Mechanical Design Process');
#1192=PRODUCT_CONTEXT('part definition',#1191,'mechanical');
#1193=PRODUCT('Tibia - Variant','Tibia - Variant v6',$,(#1192));
#1194=PRESENTATION_STYLE_ASSIGNMENT((#1195));
#1195=SURFACE_STYLE_USAGE(.BOTH.,#1196);
#1196=SURFACE_SIDE_STYLE('',(#1197));
#1197=SURFACE_STYLE_FILL_AREA(#1198);
#1198=FILL_AREA_STYLE('Plastica - Opaca (nero)',(#1199));
#1199=FILL_AREA_STYLE_COLOUR('Plastica - Opaca (nero)',#1200);
#1200=COLOUR_RGB('Plastica - Opaca (nero)',0.294117647058824,0.294117647058824,
0.294117647058824);
ENDSEC;
END-ISO-10303-21;
